G04*
G04 #@! TF.GenerationSoftware,Altium Limited,Altium Designer,26.3.0 (6)*
G04*
G04 Layer_Physical_Order=1*
G04 Layer_Color=255*
%FSLAX44Y44*%
%MOMM*%
G71*
G04*
G04 #@! TF.SameCoordinates,731EBCEB-8358-4E14-8107-73131C1EC674*
G04*
G04*
G04 #@! TF.FilePolarity,Positive*
G04*
G01*
G75*
%ADD11C,0.1600*%
%ADD12C,0.1524*%
%ADD13C,7.0000*%
G36*
X357000Y50622D02*
X358701Y37701D01*
X360182Y18876D01*
X360587Y3418D01*
X359524Y2327D01*
X336520D01*
Y2874D01*
X335621Y8552D01*
X333844Y14019D01*
X331235Y19141D01*
X327856Y23791D01*
X323791Y27856D01*
X319141Y31235D01*
X314019Y33844D01*
X308552Y35621D01*
X302874Y36520D01*
X297126D01*
X291448Y35621D01*
X285981Y33844D01*
X280859Y31235D01*
X276209Y27856D01*
X272144Y23791D01*
X268765Y19141D01*
X266156Y14019D01*
X264379Y8552D01*
X263480Y2874D01*
Y-2874D01*
X264379Y-8552D01*
X266156Y-14019D01*
X268765Y-19141D01*
X272144Y-23791D01*
X276209Y-27856D01*
X280859Y-31235D01*
X285981Y-33844D01*
X291448Y-35621D01*
X297126Y-36520D01*
X302874D01*
X308552Y-35621D01*
X314019Y-33844D01*
X319141Y-31235D01*
X323791Y-27856D01*
X327856Y-23791D01*
X331235Y-19141D01*
X333844Y-14019D01*
X335621Y-8552D01*
X336520Y-2874D01*
Y-2327D01*
X359268D01*
X359547Y-2496D01*
X360576Y-3851D01*
X360182Y-18876D01*
X358701Y-37701D01*
X357000Y-50622D01*
X355406Y-51049D01*
X355280Y-50884D01*
X353918Y-49839D01*
X352331Y-49182D01*
X350629Y-48958D01*
X348927Y-49182D01*
X347341Y-49839D01*
X346190Y-50722D01*
X345235Y-49600D01*
X345202Y-49574D01*
X345181Y-49539D01*
X344891Y-49328D01*
X344611Y-49106D01*
X344571Y-49095D01*
X344537Y-49071D01*
X342542Y-48149D01*
X342502Y-48139D01*
X342467Y-48116D01*
X342116Y-48046D01*
X341768Y-47962D01*
X341727Y-47969D01*
X341687Y-47961D01*
X251510D01*
X250935Y-47904D01*
X249787Y-47429D01*
X248981Y-46623D01*
X248506Y-45475D01*
X248449Y-44900D01*
X248449Y44900D01*
X248506Y45475D01*
X248981Y46623D01*
X249787Y47429D01*
X250936Y47904D01*
X251510Y47961D01*
X341687D01*
X341727Y47969D01*
X341768Y47962D01*
X342116Y48046D01*
X342467Y48116D01*
X342502Y48139D01*
X342542Y48149D01*
X344537Y49071D01*
X344571Y49095D01*
X344611Y49106D01*
X344892Y49328D01*
X345181Y49539D01*
X345202Y49574D01*
X345235Y49600D01*
X346190Y50722D01*
X347341Y49839D01*
X348927Y49182D01*
X350629Y48958D01*
X352331Y49182D01*
X353918Y49839D01*
X355280Y50884D01*
X355406Y51049D01*
X357000Y50622D01*
D02*
G37*
G36*
X-355280Y50884D02*
X-353918Y49839D01*
X-352331Y49182D01*
X-350629Y48958D01*
X-348927Y49182D01*
X-347341Y49839D01*
X-346190Y50722D01*
X-345235Y49600D01*
X-345202Y49574D01*
X-345181Y49539D01*
X-344891Y49328D01*
X-344611Y49106D01*
X-344571Y49095D01*
X-344537Y49071D01*
X-342542Y48149D01*
X-342502Y48139D01*
X-342467Y48116D01*
X-342116Y48046D01*
X-341768Y47962D01*
X-341727Y47969D01*
X-341687Y47961D01*
X-251511D01*
X-250936Y47904D01*
X-249788Y47429D01*
X-248982Y46623D01*
X-248506Y45475D01*
X-248449Y44900D01*
X-248449Y-44900D01*
X-248506Y-45475D01*
X-248982Y-46623D01*
X-249788Y-47429D01*
X-250936Y-47904D01*
X-251510Y-47961D01*
X-340588D01*
X-340588Y-47961D01*
X-341687D01*
X-341727Y-47969D01*
X-341768Y-47962D01*
X-342116Y-48046D01*
X-342467Y-48116D01*
X-342502Y-48139D01*
X-342542Y-48149D01*
X-344537Y-49071D01*
X-344571Y-49095D01*
X-344611Y-49106D01*
X-344892Y-49328D01*
X-345181Y-49539D01*
X-345202Y-49574D01*
X-345235Y-49600D01*
X-346190Y-50722D01*
X-347341Y-49839D01*
X-348927Y-49182D01*
X-350629Y-48958D01*
X-352331Y-49182D01*
X-353918Y-49839D01*
X-355280Y-50884D01*
X-355406Y-51049D01*
X-357000Y-50622D01*
X-358701Y-37701D01*
X-360182Y-18876D01*
X-360587Y-3418D01*
X-359524Y-2327D01*
X-336520D01*
Y-2874D01*
X-335621Y-8552D01*
X-333844Y-14019D01*
X-331235Y-19141D01*
X-327856Y-23791D01*
X-323791Y-27856D01*
X-319141Y-31235D01*
X-314019Y-33844D01*
X-308552Y-35621D01*
X-302874Y-36520D01*
X-297126D01*
X-291448Y-35621D01*
X-285981Y-33844D01*
X-280859Y-31235D01*
X-276209Y-27856D01*
X-272144Y-23791D01*
X-268765Y-19141D01*
X-266156Y-14019D01*
X-264379Y-8552D01*
X-263480Y-2874D01*
Y2874D01*
X-264379Y8552D01*
X-266156Y14019D01*
X-268765Y19141D01*
X-272144Y23791D01*
X-276209Y27856D01*
X-280859Y31235D01*
X-285981Y33844D01*
X-291448Y35621D01*
X-297126Y36520D01*
X-302874D01*
X-308552Y35621D01*
X-314019Y33844D01*
X-319141Y31235D01*
X-323791Y27856D01*
X-327856Y23791D01*
X-331235Y19141D01*
X-333844Y14019D01*
X-335621Y8552D01*
X-336520Y2874D01*
Y2327D01*
X-359267D01*
X-359547Y2497D01*
X-360576Y3851D01*
X-360182Y18876D01*
X-358701Y37701D01*
X-357000Y50622D01*
X-355406Y51049D01*
X-355280Y50884D01*
D02*
G37*
G36*
X-465119Y173901D02*
X-465121Y173887D01*
X-466687Y169860D01*
X-473652Y149342D01*
X-479715Y128539D01*
X-484866Y107492D01*
X-489093Y86240D01*
X-492389Y64824D01*
X-494748Y43285D01*
X-496165Y21663D01*
X-496638Y0D01*
X-496165Y-21663D01*
X-494748Y-43285D01*
X-492389Y-64824D01*
X-489093Y-86240D01*
X-484866Y-107492D01*
X-479715Y-128539D01*
X-473652Y-149342D01*
X-466687Y-169860D01*
X-458834Y-190055D01*
X-450107Y-209888D01*
X-440523Y-229322D01*
X-430101Y-248319D01*
X-418860Y-266843D01*
X-406822Y-284860D01*
X-394009Y-302334D01*
X-380447Y-319233D01*
X-366160Y-335524D01*
X-351176Y-351176D01*
X-335524Y-366160D01*
X-319233Y-380447D01*
X-302334Y-394009D01*
X-284860Y-406822D01*
X-266843Y-418860D01*
X-248319Y-430101D01*
X-229322Y-440523D01*
X-209888Y-450107D01*
X-190055Y-458834D01*
X-169860Y-466687D01*
X-149342Y-473652D01*
X-128539Y-479715D01*
X-107492Y-484866D01*
X-86240Y-489093D01*
X-64824Y-492389D01*
X-43285Y-494748D01*
X-21663Y-496165D01*
X0Y-496638D01*
X21663Y-496165D01*
X43285Y-494748D01*
X64824Y-492389D01*
X86240Y-489093D01*
X107492Y-484866D01*
X128539Y-479715D01*
X149342Y-473652D01*
X169860Y-466687D01*
X190055Y-458834D01*
X209888Y-450107D01*
X229322Y-440523D01*
X248319Y-430101D01*
X266843Y-418860D01*
X284860Y-406822D01*
X302334Y-394009D01*
X319233Y-380447D01*
X335524Y-366160D01*
X351176Y-351176D01*
X366160Y-335524D01*
X380447Y-319233D01*
X394009Y-302334D01*
X406822Y-284860D01*
X418860Y-266843D01*
X430101Y-248319D01*
X440523Y-229322D01*
X450107Y-209888D01*
X458834Y-190055D01*
X462085Y-181695D01*
X462429Y-181662D01*
X463510Y-183089D01*
X460528Y-190757D01*
X451769Y-210663D01*
X442150Y-230169D01*
X431689Y-249236D01*
X420407Y-267829D01*
X408324Y-285912D01*
X395464Y-303450D01*
X381851Y-320411D01*
X367512Y-336763D01*
X352473Y-352473D01*
X336763Y-367512D01*
X320411Y-381851D01*
X303450Y-395464D01*
X285912Y-408324D01*
X267829Y-420407D01*
X249236Y-431689D01*
X230169Y-442150D01*
X210663Y-451769D01*
X190757Y-460528D01*
X170487Y-468410D01*
X149893Y-475401D01*
X129014Y-481487D01*
X107889Y-486656D01*
X86559Y-490899D01*
X65064Y-494207D01*
X43445Y-496575D01*
X21743Y-497997D01*
X0Y-498472D01*
X-21743Y-497997D01*
X-43445Y-496575D01*
X-65064Y-494207D01*
X-86559Y-490899D01*
X-107889Y-486656D01*
X-129014Y-481487D01*
X-149893Y-475401D01*
X-170487Y-468410D01*
X-190757Y-460528D01*
X-210663Y-451769D01*
X-230169Y-442150D01*
X-249236Y-431689D01*
X-267829Y-420407D01*
X-285912Y-408324D01*
X-303450Y-395464D01*
X-320411Y-381851D01*
X-336763Y-367512D01*
X-352473Y-352473D01*
X-367512Y-336763D01*
X-381851Y-320411D01*
X-395464Y-303450D01*
X-408324Y-285912D01*
X-420407Y-267829D01*
X-431689Y-249236D01*
X-442150Y-230169D01*
X-451769Y-210663D01*
X-460528Y-190757D01*
X-468410Y-170487D01*
X-475401Y-149893D01*
X-481487Y-129014D01*
X-486656Y-107889D01*
X-490899Y-86559D01*
X-494207Y-65064D01*
X-496575Y-43445D01*
X-497997Y-21743D01*
X-498472Y0D01*
X-497997Y21743D01*
X-496575Y43445D01*
X-494207Y65064D01*
X-490899Y86559D01*
X-486656Y107889D01*
X-481487Y129014D01*
X-475401Y149893D01*
X-468410Y170487D01*
X-467090Y173881D01*
X-465580Y174478D01*
X-465119Y173901D01*
D02*
G37*
D11*
X464363Y-178252D02*
G03*
X-464363Y178252I-464363J178252D01*
G01*
X-462903Y173072D02*
G03*
X461375Y-177105I462903J-173072D01*
G01*
X462903Y-173072D02*
G03*
X-461375Y177105I-462903J173072D01*
G01*
X-461389Y167932D02*
G03*
X459906Y-171952I461389J-167932D01*
G01*
X461389Y-167932D02*
G03*
X-459906Y171952I-461389J167932D01*
G01*
X-459820Y162831D02*
G03*
X458382Y-166837I459820J-162831D01*
G01*
X459820Y-162831D02*
G03*
X-458382Y166837I-459820J162831D01*
G01*
X-458198Y157770D02*
G03*
X456804Y-161763I458198J-157770D01*
G01*
X458198Y-157770D02*
G03*
X-456804Y161763I-458198J157770D01*
G01*
X-456523Y152750D02*
G03*
X455172Y-156728I456523J-152750D01*
G01*
X456523Y-152750D02*
G03*
X-455172Y156728I-456523J152750D01*
G01*
X-454795Y147772D02*
G03*
X453488Y-151735I454795J-147772D01*
G01*
X454795Y-147772D02*
G03*
X-453488Y151735I-454795J147772D01*
G01*
X-453015Y142835D02*
G03*
X451752Y-146783I453015J-142835D01*
G01*
X453015Y-142835D02*
G03*
X-451752Y146783I-453015J142835D01*
G01*
X-451184Y137941D02*
G03*
X449963Y-141873I451184J-137941D01*
G01*
X451184Y-137941D02*
G03*
X-449963Y141873I-451184J137941D01*
G01*
X-449303Y133090D02*
G03*
X448124Y-137005I449303J-133090D01*
G01*
X449303Y-133090D02*
G03*
X-448124Y137005I-449303J133090D01*
G01*
X-447371Y128282D02*
G03*
X446235Y-132181I447371J-128282D01*
G01*
X447371Y-128282D02*
G03*
X-446235Y132181I-447371J128282D01*
G01*
X-445390Y123518D02*
G03*
X444295Y-127400I445390J-123518D01*
G01*
X445390Y-123518D02*
G03*
X-444295Y127400I-445390J123518D01*
G01*
X-443360Y118798D02*
G03*
X442306Y-122662I443360J-118798D01*
G01*
X443360Y-118798D02*
G03*
X-442306Y122662I-443360J118798D01*
G01*
X-441282Y114123D02*
G03*
X440269Y-117970I441282J-114123D01*
G01*
X441282Y-114123D02*
G03*
X-440269Y117970I-441282J114123D01*
G01*
X-439156Y109494D02*
G03*
X438184Y-113322I439156J-109494D01*
G01*
X439156Y-109494D02*
G03*
X-438184Y113322I-439156J109494D01*
G01*
X-436983Y104910D02*
G03*
X436051Y-108720I436983J-104910D01*
G01*
X436983Y-104910D02*
G03*
X-436051Y108720I-436983J104910D01*
G01*
X-434764Y100373D02*
G03*
X433871Y-104163I434764J-100373D01*
G01*
X434764Y-100373D02*
G03*
X-433871Y104163I-434764J100373D01*
G01*
X-432499Y95883D02*
G03*
X431646Y-99653I432499J-95883D01*
G01*
X432499Y-95883D02*
G03*
X-431646Y99653I-432499J95883D01*
G01*
X-430189Y91440D02*
G03*
X429375Y-95190I430189J-91440D01*
G01*
X430189Y-91440D02*
G03*
X-429375Y95190I-430189J91440D01*
G01*
X-427835Y87044D02*
G03*
X427059Y-90774I427835J-87044D01*
G01*
X427835Y-87044D02*
G03*
X-427059Y90774I-427835J87044D01*
G01*
X-425437Y82697D02*
G03*
X424699Y-86406I425437J-82697D01*
G01*
X425437Y-82697D02*
G03*
X-424699Y86406I-425437J82697D01*
G01*
X-422996Y78398D02*
G03*
X422296Y-82086I422996J-78398D01*
G01*
X422996Y-78398D02*
G03*
X-422296Y82086I-422996J78398D01*
G01*
X-420513Y74148D02*
G03*
X419850Y-77815I420513J-74148D01*
G01*
X420513Y-74148D02*
G03*
X-419850Y77815I-420513J74148D01*
G01*
X-417988Y69947D02*
G03*
X417361Y-73592I417988J-69947D01*
G01*
X417988Y-69947D02*
G03*
X-417361Y73592I-417988J69947D01*
G01*
X-415422Y65796D02*
G03*
X414832Y-69419I415422J-65796D01*
G01*
X415422Y-65796D02*
G03*
X-414832Y69419I-415422J65796D01*
G01*
X-412815Y61696D02*
G03*
X412261Y-65296I412815J-61696D01*
G01*
X412815Y-61696D02*
G03*
X-412261Y65296I-412815J61696D01*
G01*
X-410169Y57646D02*
G03*
X409650Y-61223I410169J-57646D01*
G01*
X410169Y-57646D02*
G03*
X-409650Y61223I-410169J57646D01*
G01*
X-407484Y53646D02*
G03*
X407000Y-57200I407484J-53646D01*
G01*
X407484Y-53646D02*
G03*
X-407000Y57200I-407484J53646D01*
G01*
X-404760Y49698D02*
G03*
X404311Y-53229I404760J-49698D01*
G01*
X404760Y-49698D02*
G03*
X-404311Y53229I-404760J49698D01*
G01*
X-401999Y45802D02*
G03*
X401584Y-49308I401999J-45802D01*
G01*
X401999Y-45802D02*
G03*
X-401584Y49308I-401999J45802D01*
G01*
X-399201Y41958D02*
G03*
X398820Y-45440I399201J-41958D01*
G01*
X399201Y-41958D02*
G03*
X-398820Y45440I-399201J41958D01*
G01*
X-396367Y38166D02*
G03*
X396019Y-41623I396367J-38166D01*
G01*
X396367Y-38166D02*
G03*
X-396019Y41623I-396367J38166D01*
G01*
X-393497Y34427D02*
G03*
X393181Y-37859I393497J-34427D01*
G01*
X393497Y-34427D02*
G03*
X-393181Y37859I-393497J34427D01*
G01*
X-390592Y30740D02*
G03*
X390309Y-34148I390592J-30740D01*
G01*
X390592Y-30740D02*
G03*
X-390309Y34148I-390592J30740D01*
G01*
X-387653Y27107D02*
G03*
X387402Y-30489I387653J-27107D01*
G01*
X387653Y-27107D02*
G03*
X-387402Y30489I-387653J27107D01*
G01*
X-384681Y23528D02*
G03*
X384461Y-26884I384681J-23528D01*
G01*
X384681Y-23528D02*
G03*
X-384461Y26884I-384681J23528D01*
G01*
X-381676Y20003D02*
G03*
X381487Y-23333I381676J-20003D01*
G01*
X381676Y-20003D02*
G03*
X-381487Y23333I-381676J20003D01*
G01*
X-378639Y16532D02*
G03*
X378481Y-19835I378639J-16532D01*
G01*
X378639Y-16532D02*
G03*
X-378481Y19835I-378639J16532D01*
G01*
X-375571Y13115D02*
G03*
X375442Y-16392I375571J-13115D01*
G01*
X375571Y-13115D02*
G03*
X-375442Y16392I-375571J13115D01*
G01*
X-372472Y9754D02*
G03*
X372373Y-13004I372472J-9754D01*
G01*
X372472Y-9754D02*
G03*
X-372373Y13004I-372472J9754D01*
G01*
X-369344Y6447D02*
G03*
X369273Y-9670I369344J-6447D01*
G01*
X369344Y-6447D02*
G03*
X-369273Y9670I-369344J6447D01*
G01*
X-366186Y3196D02*
G03*
X366144Y-6391I366186J-3196D01*
G01*
X366186Y-3196D02*
G03*
X-366144Y6391I-366186J3196D01*
G01*
X-363000Y0D02*
G03*
X362986Y-3168I363000J0D01*
G01*
X363000Y0D02*
G03*
X-362986Y3168I-363000J0D01*
G01*
X461375Y-177105D02*
X464363Y-178252D01*
X-464363Y178252D02*
X-461375Y177105D01*
X459906Y-171952D02*
X462903Y-173072D01*
X-462903Y173072D02*
X-459906Y171952D01*
X458382Y-166837D02*
X461389Y-167932D01*
X-461389Y167932D02*
X-458382Y166837D01*
X456804Y-161763D02*
X459820Y-162831D01*
X-459820Y162831D02*
X-456804Y161763D01*
X455172Y-156728D02*
X458198Y-157770D01*
X-458198Y157770D02*
X-455172Y156728D01*
X453488Y-151735D02*
X456523Y-152750D01*
X-456523Y152750D02*
X-453488Y151735D01*
X451752Y-146783D02*
X454795Y-147772D01*
X-454795Y147772D02*
X-451752Y146783D01*
X449963Y-141873D02*
X453015Y-142835D01*
X-453015Y142835D02*
X-449963Y141873D01*
X448124Y-137005D02*
X451184Y-137941D01*
X-451184Y137941D02*
X-448124Y137005D01*
X446235Y-132181D02*
X449303Y-133090D01*
X-449303Y133090D02*
X-446235Y132181D01*
X444295Y-127400D02*
X447371Y-128282D01*
X-447371Y128282D02*
X-444295Y127400D01*
X442306Y-122662D02*
X445390Y-123518D01*
X-445390Y123518D02*
X-442306Y122662D01*
X440269Y-117970D02*
X443360Y-118798D01*
X-443360Y118798D02*
X-440269Y117970D01*
X438184Y-113322D02*
X441282Y-114123D01*
X-441282Y114123D02*
X-438184Y113322D01*
X436051Y-108720D02*
X439156Y-109494D01*
X-439156Y109494D02*
X-436051Y108720D01*
X433871Y-104163D02*
X436983Y-104910D01*
X-436983Y104910D02*
X-433871Y104163D01*
X431646Y-99653D02*
X434764Y-100373D01*
X-434764Y100373D02*
X-431646Y99653D01*
X429375Y-95190D02*
X432499Y-95883D01*
X-432499Y95883D02*
X-429375Y95190D01*
X427059Y-90774D02*
X430189Y-91440D01*
X-430189Y91440D02*
X-427059Y90774D01*
X424699Y-86406D02*
X427835Y-87044D01*
X-427835Y87044D02*
X-424699Y86406D01*
X422296Y-82086D02*
X425437Y-82697D01*
X-425437Y82697D02*
X-422296Y82086D01*
X419850Y-77815D02*
X422996Y-78398D01*
X-422996Y78398D02*
X-419850Y77815D01*
X417361Y-73592D02*
X420513Y-74148D01*
X-420513Y74148D02*
X-417361Y73592D01*
X414832Y-69419D02*
X417988Y-69947D01*
X-417988Y69947D02*
X-414832Y69419D01*
X412261Y-65296D02*
X415422Y-65796D01*
X-415422Y65796D02*
X-412261Y65296D01*
X409650Y-61223D02*
X412815Y-61696D01*
X-412815Y61696D02*
X-409650Y61223D01*
X407000Y-57200D02*
X410169Y-57646D01*
X-410169Y57646D02*
X-407000Y57200D01*
X404311Y-53229D02*
X407484Y-53646D01*
X-407484Y53646D02*
X-404311Y53229D01*
X401584Y-49308D02*
X404760Y-49698D01*
X-404760Y49698D02*
X-401584Y49308D01*
X398820Y-45440D02*
X401999Y-45802D01*
X-401999Y45802D02*
X-398820Y45440D01*
X396019Y-41623D02*
X399201Y-41958D01*
X-399201Y41958D02*
X-396019Y41623D01*
X393181Y-37859D02*
X396367Y-38166D01*
X-396367Y38166D02*
X-393181Y37859D01*
X390309Y-34148D02*
X393497Y-34427D01*
X-393497Y34427D02*
X-390309Y34148D01*
X387402Y-30489D02*
X390592Y-30740D01*
X-390592Y30740D02*
X-387402Y30489D01*
X384461Y-26884D02*
X387653Y-27107D01*
X-387653Y27107D02*
X-384461Y26884D01*
X381487Y-23333D02*
X384681Y-23528D01*
X-384681Y23528D02*
X-381487Y23333D01*
X378481Y-19835D02*
X381676Y-20003D01*
X-381676Y20003D02*
X-378481Y19835D01*
X375442Y-16392D02*
X378639Y-16532D01*
X-378639Y16532D02*
X-375442Y16392D01*
X372373Y-13004D02*
X375571Y-13115D01*
X-375571Y13115D02*
X-372373Y13004D01*
X369273Y-9670D02*
X372472Y-9754D01*
X-372472Y9754D02*
X-369273Y9670D01*
X366144Y-6391D02*
X369344Y-6447D01*
X-369344Y6447D02*
X-366144Y6391D01*
X362986Y-3168D02*
X366186Y-3196D01*
X-366186Y3196D02*
X-362986Y3168D01*
D12*
X-363000Y0D02*
X-300000D01*
X300000D02*
X363000D01*
D13*
X300000D02*
D03*
X-300000D02*
D03*
M02*
