G04*
G04 #@! TF.GenerationSoftware,Altium Limited,Altium Designer,26.3.0 (6)*
G04*
G04 Layer_Physical_Order=2*
G04 Layer_Color=16711680*
%FSLAX44Y44*%
%MOMM*%
G71*
G04*
G04 #@! TF.SameCoordinates,731EBCEB-8358-4E14-8107-73131C1EC674*
G04*
G04*
G04 #@! TF.FilePolarity,Positive*
G04*
G01*
G75*
%ADD13C,7.0000*%
G36*
X21743Y497997D02*
X43445Y496575D01*
X65064Y494207D01*
X86559Y490899D01*
X107889Y486656D01*
X129014Y481487D01*
X149893Y475401D01*
X170487Y468410D01*
X190757Y460528D01*
X210663Y451769D01*
X230169Y442150D01*
X249236Y431689D01*
X267829Y420407D01*
X285912Y408324D01*
X303450Y395464D01*
X320411Y381851D01*
X336763Y367512D01*
X352473Y352473D01*
X367512Y336763D01*
X381851Y320411D01*
X395464Y303450D01*
X408324Y285912D01*
X420407Y267829D01*
X431689Y249236D01*
X442150Y230169D01*
X451769Y210663D01*
X460528Y190757D01*
X468410Y170487D01*
X475401Y149893D01*
X481487Y129014D01*
X481641Y128382D01*
X480214Y127847D01*
X476179Y135658D01*
X467440Y150473D01*
X457884Y164774D01*
X447541Y178517D01*
X436444Y191659D01*
X424628Y204158D01*
X412129Y215974D01*
X398987Y227071D01*
X385244Y237414D01*
X370943Y246970D01*
X356128Y255709D01*
X340846Y263604D01*
X325146Y270629D01*
X309077Y276763D01*
X292689Y281986D01*
X276034Y286283D01*
X259164Y289638D01*
X242133Y292043D01*
X224993Y293488D01*
X210657Y293890D01*
X196965Y303300D01*
X180822Y313193D01*
X164183Y322227D01*
X147094Y330378D01*
X129602Y337624D01*
X111754Y343944D01*
X93600Y349321D01*
X75190Y353741D01*
X56574Y357192D01*
X37802Y359663D01*
X18927Y361148D01*
X0Y361644D01*
X-18927Y361148D01*
X-37802Y359663D01*
X-56574Y357192D01*
X-75190Y353741D01*
X-93600Y349321D01*
X-111754Y343944D01*
X-129602Y337624D01*
X-147094Y330378D01*
X-164183Y322227D01*
X-180822Y313193D01*
X-196965Y303300D01*
X-212569Y292576D01*
X-227590Y281050D01*
X-241987Y268754D01*
X-255721Y255721D01*
X-268754Y241987D01*
X-281050Y227590D01*
X-292576Y212569D01*
X-303300Y196965D01*
X-313193Y180822D01*
X-322227Y164183D01*
X-330378Y147094D01*
X-337624Y129602D01*
X-343944Y111754D01*
X-349321Y93600D01*
X-353741Y75190D01*
X-357192Y56574D01*
X-357071Y56554D01*
X-357206Y55534D01*
X-356982Y53832D01*
X-356325Y52246D01*
X-355280Y50884D01*
X-353918Y49839D01*
X-352331Y49182D01*
X-350629Y48958D01*
X-348927Y49182D01*
X-347341Y49839D01*
X-346190Y50722D01*
X-345235Y49600D01*
X-345202Y49574D01*
X-345181Y49539D01*
X-344891Y49328D01*
X-344611Y49106D01*
X-344571Y49095D01*
X-344537Y49071D01*
X-342542Y48149D01*
X-342502Y48139D01*
X-342467Y48116D01*
X-342116Y48046D01*
X-341768Y47962D01*
X-341727Y47969D01*
X-341687Y47961D01*
X-251511D01*
X-250936Y47904D01*
X-249788Y47429D01*
X-248982Y46623D01*
X-248506Y45475D01*
X-248449Y44900D01*
Y28903D01*
X-249973Y27392D01*
X-261463D01*
Y-27392D01*
X-248480Y-27392D01*
X-248449Y-28903D01*
Y-44900D01*
X-248506Y-45475D01*
X-248982Y-46623D01*
X-249788Y-47429D01*
X-250936Y-47904D01*
X-251510Y-47961D01*
X-340588D01*
X-340588Y-47961D01*
X-341687D01*
X-341727Y-47969D01*
X-341768Y-47962D01*
X-342116Y-48046D01*
X-342467Y-48116D01*
X-342502Y-48139D01*
X-342542Y-48149D01*
X-344537Y-49071D01*
X-344571Y-49095D01*
X-344611Y-49106D01*
X-344892Y-49328D01*
X-345181Y-49539D01*
X-345202Y-49574D01*
X-345235Y-49600D01*
X-346190Y-50722D01*
X-347341Y-49839D01*
X-348927Y-49182D01*
X-350629Y-48958D01*
X-352331Y-49182D01*
X-353918Y-49839D01*
X-355280Y-50884D01*
X-356325Y-52246D01*
X-356982Y-53832D01*
X-357206Y-55534D01*
X-357071Y-56554D01*
X-357192Y-56574D01*
X-353741Y-75190D01*
X-349321Y-93600D01*
X-343944Y-111754D01*
X-337624Y-129602D01*
X-330378Y-147094D01*
X-322227Y-164183D01*
X-313193Y-180822D01*
X-303300Y-196965D01*
X-292576Y-212569D01*
X-281050Y-227590D01*
X-268754Y-241987D01*
X-255721Y-255721D01*
X-241987Y-268754D01*
X-227590Y-281050D01*
X-212569Y-292576D01*
X-196965Y-303300D01*
X-180822Y-313193D01*
X-164183Y-322227D01*
X-147094Y-330378D01*
X-129602Y-337624D01*
X-111754Y-343944D01*
X-93600Y-349321D01*
X-75190Y-353741D01*
X-56574Y-357192D01*
X-37802Y-359663D01*
X-18927Y-361148D01*
X0Y-361644D01*
X18927Y-361148D01*
X37802Y-359663D01*
X56574Y-357192D01*
X75190Y-353741D01*
X93600Y-349321D01*
X111754Y-343944D01*
X129602Y-337624D01*
X147094Y-330378D01*
X164183Y-322227D01*
X180822Y-313193D01*
X196965Y-303300D01*
X212569Y-292576D01*
X227590Y-281050D01*
X241987Y-268754D01*
X255721Y-255721D01*
X268754Y-241987D01*
X281050Y-227590D01*
X292576Y-212569D01*
X303300Y-196965D01*
X313193Y-180822D01*
X322227Y-164183D01*
X330378Y-147094D01*
X337624Y-129602D01*
X343944Y-111754D01*
X349321Y-93600D01*
X353741Y-75190D01*
X357192Y-56574D01*
X357071Y-56554D01*
X357206Y-55534D01*
X356982Y-53832D01*
X356325Y-52246D01*
X355280Y-50884D01*
X353918Y-49839D01*
X352331Y-49182D01*
X350629Y-48958D01*
X348927Y-49182D01*
X347341Y-49839D01*
X346190Y-50722D01*
X345235Y-49600D01*
X345202Y-49574D01*
X345181Y-49539D01*
X344891Y-49328D01*
X344611Y-49106D01*
X344571Y-49095D01*
X344537Y-49071D01*
X342542Y-48149D01*
X342502Y-48139D01*
X342467Y-48116D01*
X342116Y-48046D01*
X341768Y-47962D01*
X341727Y-47969D01*
X341687Y-47961D01*
X251510D01*
X250935Y-47904D01*
X249787Y-47429D01*
X248981Y-46623D01*
X248506Y-45475D01*
X248449Y-44900D01*
X248449Y44900D01*
X248506Y45475D01*
X248981Y46623D01*
X249787Y47429D01*
X250936Y47904D01*
X251510Y47961D01*
X341687D01*
X341727Y47969D01*
X341768Y47962D01*
X342116Y48046D01*
X342467Y48116D01*
X342502Y48139D01*
X342542Y48149D01*
X344537Y49071D01*
X344571Y49095D01*
X344611Y49106D01*
X344892Y49328D01*
X345181Y49539D01*
X345202Y49574D01*
X345235Y49600D01*
X346190Y50722D01*
X347341Y49839D01*
X348927Y49182D01*
X350629Y48958D01*
X352331Y49182D01*
X353918Y49839D01*
X355280Y50884D01*
X356325Y52246D01*
X356982Y53832D01*
X357206Y55534D01*
X357071Y56554D01*
X357192Y56574D01*
X353741Y75190D01*
X349321Y93600D01*
X343944Y111754D01*
X337624Y129602D01*
X330378Y147094D01*
X322227Y164183D01*
X313193Y180822D01*
X303300Y196965D01*
X292576Y212569D01*
X281050Y227590D01*
X268754Y241987D01*
X255721Y255721D01*
X241987Y268754D01*
X230774Y278331D01*
X231361Y279737D01*
X240658Y278953D01*
X256958Y276652D01*
X273103Y273441D01*
X289042Y269329D01*
X304727Y264330D01*
X320106Y258459D01*
X335131Y251736D01*
X349756Y244181D01*
X363935Y235817D01*
X377622Y226671D01*
X390775Y216773D01*
X403352Y206152D01*
X415313Y194844D01*
X426622Y182882D01*
X437243Y170305D01*
X447141Y157152D01*
X456287Y143465D01*
X464650Y129286D01*
X472206Y114661D01*
X478929Y99635D01*
X484800Y84256D01*
X489799Y68573D01*
X493911Y52633D01*
X497122Y36488D01*
X497475Y33991D01*
X497139Y31156D01*
X497150Y31022D01*
X497125Y30889D01*
X497160Y28275D01*
X497169Y28231D01*
X497163Y28186D01*
X497429Y23495D01*
X497783Y14101D01*
X497961Y4703D01*
X497961Y-4696D01*
X497872Y-9395D01*
X497880Y-9440D01*
X497873Y-9484D01*
X497937Y-12098D01*
X497967Y-12229D01*
X497961Y-12363D01*
X498770Y-17524D01*
X498832Y-17692D01*
X498855Y-17869D01*
X500547Y-22811D01*
X500637Y-22966D01*
X500691Y-23136D01*
X503215Y-27710D01*
X503302Y-27812D01*
X503358Y-27934D01*
X504909Y-30039D01*
X504943Y-30069D01*
X504963Y-30109D01*
X505433Y-30691D01*
X506138Y-32009D01*
X506585Y-33435D01*
X506760Y-34920D01*
X506629Y-36778D01*
X505032Y-37766D01*
X504780Y-37661D01*
X503078Y-37437D01*
X501376Y-37661D01*
X499790Y-38318D01*
X498428Y-39364D01*
X497383Y-40725D01*
X496726Y-42312D01*
X496577Y-43445D01*
X496575Y-43445D01*
X494207Y-65064D01*
X490899Y-86559D01*
X486656Y-107889D01*
X481487Y-129014D01*
X475401Y-149893D01*
X468410Y-170487D01*
X460528Y-190757D01*
X451769Y-210663D01*
X442150Y-230169D01*
X431689Y-249236D01*
X420407Y-267829D01*
X408324Y-285912D01*
X395464Y-303450D01*
X381851Y-320411D01*
X367512Y-336763D01*
X352473Y-352473D01*
X336763Y-367512D01*
X320411Y-381851D01*
X303450Y-395464D01*
X285912Y-408324D01*
X267829Y-420407D01*
X249236Y-431689D01*
X230169Y-442150D01*
X210663Y-451769D01*
X190757Y-460528D01*
X170487Y-468410D01*
X149893Y-475401D01*
X129014Y-481487D01*
X107889Y-486656D01*
X86559Y-490899D01*
X65064Y-494207D01*
X43445Y-496575D01*
X21743Y-497997D01*
X0Y-498472D01*
X-21743Y-497997D01*
X-43445Y-496575D01*
X-65064Y-494207D01*
X-86559Y-490899D01*
X-107889Y-486656D01*
X-129014Y-481487D01*
X-149893Y-475401D01*
X-170487Y-468410D01*
X-190757Y-460528D01*
X-210663Y-451769D01*
X-230169Y-442150D01*
X-249236Y-431689D01*
X-267829Y-420407D01*
X-285912Y-408324D01*
X-303450Y-395464D01*
X-320411Y-381851D01*
X-336763Y-367512D01*
X-352473Y-352473D01*
X-367512Y-336763D01*
X-381851Y-320411D01*
X-395464Y-303450D01*
X-408324Y-285912D01*
X-420407Y-267829D01*
X-431689Y-249236D01*
X-442150Y-230169D01*
X-451769Y-210663D01*
X-460528Y-190757D01*
X-468410Y-170487D01*
X-475401Y-149893D01*
X-481487Y-129014D01*
X-486656Y-107889D01*
X-490899Y-86559D01*
X-494207Y-65064D01*
X-496575Y-43445D01*
X-497997Y-21743D01*
X-498472Y0D01*
X-497997Y21743D01*
X-496575Y43445D01*
X-494207Y65064D01*
X-490899Y86559D01*
X-486656Y107889D01*
X-481487Y129014D01*
X-475401Y149893D01*
X-468410Y170487D01*
X-460528Y190757D01*
X-451769Y210663D01*
X-442150Y230169D01*
X-431689Y249236D01*
X-420407Y267829D01*
X-408324Y285912D01*
X-395464Y303450D01*
X-381851Y320411D01*
X-367512Y336763D01*
X-352473Y352473D01*
X-336763Y367512D01*
X-320411Y381851D01*
X-303450Y395464D01*
X-285912Y408324D01*
X-267829Y420407D01*
X-249236Y431689D01*
X-230169Y442150D01*
X-210663Y451769D01*
X-190757Y460528D01*
X-170487Y468410D01*
X-149893Y475401D01*
X-129014Y481487D01*
X-107889Y486656D01*
X-86559Y490899D01*
X-65064Y494207D01*
X-43445Y496575D01*
X-21743Y497997D01*
X0Y498472D01*
X21743Y497997D01*
D02*
G37*
G36*
X-250159Y19416D02*
X-250180D01*
X-250233D01*
X-250317D01*
X-250423Y19426D01*
X-250550Y19437D01*
X-250687Y19469D01*
X-250835Y19500D01*
X-250983Y19553D01*
X-250993D01*
X-251014Y19564D01*
X-251046Y19574D01*
X-251099Y19595D01*
X-251152Y19627D01*
X-251226Y19659D01*
X-251395Y19743D01*
X-251595Y19849D01*
X-251817Y19986D01*
X-252050Y20145D01*
X-252282Y20335D01*
X-252293Y20346D01*
X-252314Y20356D01*
X-252346Y20388D01*
X-252399Y20441D01*
X-252451Y20494D01*
X-252525Y20568D01*
X-252610Y20642D01*
X-252705Y20737D01*
X-252811Y20842D01*
X-252916Y20958D01*
X-253043Y21085D01*
X-253170Y21233D01*
X-253307Y21381D01*
X-253445Y21550D01*
X-253593Y21719D01*
X-253751Y21909D01*
X-253762Y21931D01*
X-253815Y21983D01*
X-253878Y22057D01*
X-253973Y22163D01*
X-254079Y22290D01*
X-254205Y22438D01*
X-254343Y22607D01*
X-254501Y22776D01*
X-254829Y23135D01*
X-255177Y23484D01*
X-255347Y23653D01*
X-255516Y23811D01*
X-255674Y23949D01*
X-255822Y24065D01*
X-255833Y24076D01*
X-255854Y24086D01*
X-255896Y24118D01*
X-255949Y24149D01*
X-256023Y24202D01*
X-256097Y24245D01*
X-256287Y24350D01*
X-256509Y24456D01*
X-256752Y24551D01*
X-257006Y24614D01*
X-257132Y24625D01*
X-257259Y24636D01*
X-257270D01*
X-257291D01*
X-257333D01*
X-257375Y24625D01*
X-257439D01*
X-257513Y24604D01*
X-257671Y24572D01*
X-257861Y24509D01*
X-258062Y24414D01*
X-258168Y24361D01*
X-258263Y24287D01*
X-258358Y24213D01*
X-258453Y24118D01*
X-258464Y24107D01*
X-258474Y24097D01*
X-258495Y24065D01*
X-258527Y24023D01*
X-258569Y23970D01*
X-258612Y23907D01*
X-258707Y23759D01*
X-258791Y23558D01*
X-258876Y23336D01*
X-258929Y23072D01*
X-258950Y22924D01*
Y22691D01*
X-258939Y22628D01*
Y22554D01*
X-258918Y22469D01*
X-258886Y22279D01*
X-258823Y22057D01*
X-258728Y21825D01*
X-258664Y21709D01*
X-258601Y21592D01*
X-258517Y21487D01*
X-258421Y21381D01*
X-258411Y21370D01*
X-258400Y21360D01*
X-258369Y21339D01*
X-258326Y21297D01*
X-258274Y21265D01*
X-258210Y21223D01*
X-258136Y21170D01*
X-258052Y21128D01*
X-257957Y21075D01*
X-257851Y21032D01*
X-257597Y20948D01*
X-257323Y20884D01*
X-257164Y20874D01*
X-256995Y20863D01*
X-257122Y19638D01*
X-257143D01*
X-257185Y19648D01*
X-257249Y19659D01*
X-257344Y19669D01*
X-257460Y19691D01*
X-257597Y19722D01*
X-257745Y19754D01*
X-257904Y19807D01*
X-258062Y19859D01*
X-258242Y19923D01*
X-258411Y20008D01*
X-258580Y20092D01*
X-258760Y20198D01*
X-258918Y20314D01*
X-259076Y20441D01*
X-259214Y20589D01*
X-259224Y20599D01*
X-259246Y20631D01*
X-259277Y20673D01*
X-259330Y20737D01*
X-259383Y20821D01*
X-259446Y20927D01*
X-259510Y21043D01*
X-259584Y21180D01*
X-259647Y21328D01*
X-259711Y21497D01*
X-259774Y21677D01*
X-259827Y21878D01*
X-259880Y22089D01*
X-259911Y22311D01*
X-259932Y22554D01*
X-259943Y22808D01*
Y22945D01*
X-259932Y23040D01*
X-259922Y23156D01*
X-259901Y23294D01*
X-259880Y23452D01*
X-259848Y23611D01*
X-259806Y23790D01*
X-259753Y23970D01*
X-259689Y24160D01*
X-259615Y24340D01*
X-259520Y24530D01*
X-259415Y24709D01*
X-259298Y24879D01*
X-259161Y25037D01*
X-259151Y25048D01*
X-259129Y25069D01*
X-259076Y25111D01*
X-259024Y25164D01*
X-258950Y25227D01*
X-258855Y25301D01*
X-258749Y25375D01*
X-258622Y25449D01*
X-258495Y25523D01*
X-258347Y25597D01*
X-258189Y25671D01*
X-258020Y25735D01*
X-257830Y25787D01*
X-257640Y25830D01*
X-257439Y25851D01*
X-257227Y25861D01*
X-257217D01*
X-257206D01*
X-257175D01*
X-257132D01*
X-257016Y25851D01*
X-256868Y25830D01*
X-256688Y25798D01*
X-256498Y25756D01*
X-256287Y25703D01*
X-256076Y25618D01*
X-256065D01*
X-256055Y25608D01*
X-256023Y25597D01*
X-255981Y25576D01*
X-255864Y25513D01*
X-255716Y25428D01*
X-255537Y25312D01*
X-255336Y25174D01*
X-255125Y25016D01*
X-254892Y24815D01*
X-254882Y24805D01*
X-254861Y24794D01*
X-254829Y24752D01*
X-254776Y24709D01*
X-254713Y24646D01*
X-254639Y24572D01*
X-254544Y24488D01*
X-254449Y24382D01*
X-254332Y24255D01*
X-254205Y24118D01*
X-254058Y23970D01*
X-253910Y23801D01*
X-253741Y23621D01*
X-253571Y23420D01*
X-253381Y23198D01*
X-253181Y22966D01*
X-253170Y22956D01*
X-253138Y22924D01*
X-253096Y22860D01*
X-253033Y22797D01*
X-252959Y22702D01*
X-252874Y22607D01*
X-252684Y22385D01*
X-252483Y22153D01*
X-252272Y21931D01*
X-252177Y21825D01*
X-252092Y21730D01*
X-252008Y21645D01*
X-251944Y21582D01*
X-251934Y21571D01*
X-251891Y21529D01*
X-251828Y21476D01*
X-251744Y21402D01*
X-251648Y21318D01*
X-251543Y21233D01*
X-251310Y21064D01*
Y25872D01*
X-250159D01*
Y19416D01*
D02*
G37*
G36*
X-254533Y18349D02*
X-254375Y18338D01*
X-254184Y18327D01*
X-253983Y18317D01*
X-253762Y18296D01*
X-253540Y18275D01*
X-253075Y18211D01*
X-252621Y18116D01*
X-252399Y18063D01*
X-252198Y18000D01*
X-252187D01*
X-252156Y17979D01*
X-252092Y17968D01*
X-252029Y17937D01*
X-251934Y17894D01*
X-251839Y17852D01*
X-251722Y17799D01*
X-251595Y17736D01*
X-251331Y17588D01*
X-251067Y17408D01*
X-250803Y17197D01*
X-250687Y17070D01*
X-250571Y16943D01*
X-250560Y16933D01*
X-250550Y16911D01*
X-250518Y16869D01*
X-250486Y16816D01*
X-250444Y16753D01*
X-250391Y16668D01*
X-250338Y16573D01*
X-250285Y16457D01*
X-250233Y16341D01*
X-250180Y16204D01*
X-250137Y16066D01*
X-250084Y15908D01*
X-250053Y15739D01*
X-250021Y15559D01*
X-250011Y15379D01*
X-250000Y15179D01*
Y15115D01*
X-250011Y15041D01*
X-250021Y14946D01*
X-250032Y14830D01*
X-250053Y14693D01*
X-250084Y14545D01*
X-250127Y14376D01*
X-250180Y14207D01*
X-250243Y14027D01*
X-250328Y13837D01*
X-250423Y13657D01*
X-250539Y13477D01*
X-250676Y13298D01*
X-250824Y13129D01*
X-251004Y12970D01*
X-251014Y12960D01*
X-251057Y12928D01*
X-251131Y12886D01*
X-251236Y12822D01*
X-251374Y12748D01*
X-251532Y12664D01*
X-251733Y12579D01*
X-251955Y12495D01*
X-252219Y12400D01*
X-252504Y12315D01*
X-252832Y12231D01*
X-253191Y12157D01*
X-253582Y12093D01*
X-254005Y12051D01*
X-254470Y12019D01*
X-254966Y12009D01*
X-254987D01*
X-255040D01*
X-255135D01*
X-255252Y12019D01*
X-255399D01*
X-255569Y12030D01*
X-255759Y12040D01*
X-255959Y12051D01*
X-256181Y12072D01*
X-256403Y12093D01*
X-256868Y12157D01*
X-257323Y12241D01*
X-257544Y12294D01*
X-257745Y12357D01*
X-257756D01*
X-257787Y12378D01*
X-257851Y12400D01*
X-257925Y12421D01*
X-258009Y12463D01*
X-258115Y12505D01*
X-258221Y12558D01*
X-258347Y12622D01*
X-258612Y12770D01*
X-258876Y12960D01*
X-259140Y13171D01*
X-259256Y13287D01*
X-259372Y13414D01*
X-259383Y13425D01*
X-259394Y13446D01*
X-259425Y13488D01*
X-259457Y13541D01*
X-259510Y13604D01*
X-259552Y13689D01*
X-259605Y13784D01*
X-259658Y13900D01*
X-259711Y14016D01*
X-259763Y14154D01*
X-259816Y14302D01*
X-259858Y14450D01*
X-259890Y14619D01*
X-259922Y14798D01*
X-259932Y14988D01*
X-259943Y15179D01*
Y15305D01*
X-259932Y15379D01*
X-259922Y15453D01*
X-259901Y15644D01*
X-259869Y15855D01*
X-259806Y16087D01*
X-259732Y16320D01*
X-259626Y16552D01*
Y16563D01*
X-259615Y16584D01*
X-259594Y16616D01*
X-259563Y16658D01*
X-259499Y16764D01*
X-259394Y16901D01*
X-259267Y17060D01*
X-259108Y17218D01*
X-258918Y17387D01*
X-258707Y17535D01*
X-258696D01*
X-258675Y17556D01*
X-258643Y17567D01*
X-258601Y17598D01*
X-258548Y17630D01*
X-258474Y17672D01*
X-258390Y17704D01*
X-258305Y17757D01*
X-258094Y17852D01*
X-257851Y17947D01*
X-257566Y18053D01*
X-257259Y18137D01*
X-257249D01*
X-257217Y18148D01*
X-257175Y18158D01*
X-257101Y18169D01*
X-257016Y18190D01*
X-256910Y18211D01*
X-256794Y18232D01*
X-256657Y18254D01*
X-256498Y18264D01*
X-256329Y18285D01*
X-256139Y18306D01*
X-255938Y18327D01*
X-255716Y18338D01*
X-255484Y18349D01*
X-255230Y18359D01*
X-254966D01*
X-254945D01*
X-254892D01*
X-254797D01*
X-254681D01*
X-254533Y18349D01*
D02*
G37*
G36*
X-252494Y9462D02*
X-250159D01*
Y8268D01*
X-252494D01*
Y4020D01*
X-253593D01*
X-259911Y8479D01*
Y9462D01*
X-253593D01*
Y10783D01*
X-252494D01*
Y9462D01*
D02*
G37*
G36*
X-250159Y164D02*
X-257777D01*
X-257756Y143D01*
X-257703Y90D01*
X-257629Y-5D01*
X-257523Y-143D01*
X-257397Y-301D01*
X-257259Y-502D01*
X-257111Y-724D01*
X-256953Y-977D01*
Y-988D01*
X-256932Y-1009D01*
X-256910Y-1041D01*
X-256889Y-1094D01*
X-256847Y-1157D01*
X-256815Y-1231D01*
X-256720Y-1400D01*
X-256625Y-1590D01*
X-256520Y-1802D01*
X-256424Y-2024D01*
X-256340Y-2235D01*
X-257492D01*
X-257502Y-2224D01*
X-257513Y-2192D01*
X-257544Y-2140D01*
X-257576Y-2066D01*
X-257618Y-1981D01*
X-257682Y-1875D01*
X-257745Y-1759D01*
X-257809Y-1643D01*
X-257978Y-1368D01*
X-258178Y-1072D01*
X-258390Y-766D01*
X-258633Y-481D01*
X-258643Y-470D01*
X-258664Y-449D01*
X-258696Y-407D01*
X-258749Y-354D01*
X-258812Y-301D01*
X-258876Y-227D01*
X-259055Y-69D01*
X-259246Y111D01*
X-259468Y291D01*
X-259700Y449D01*
X-259943Y586D01*
Y1358D01*
X-250159D01*
Y164D01*
D02*
G37*
G36*
Y-7412D02*
X-257777D01*
X-257756Y-7434D01*
X-257703Y-7486D01*
X-257629Y-7581D01*
X-257523Y-7719D01*
X-257397Y-7877D01*
X-257259Y-8078D01*
X-257111Y-8300D01*
X-256953Y-8554D01*
Y-8564D01*
X-256932Y-8585D01*
X-256910Y-8617D01*
X-256889Y-8670D01*
X-256847Y-8733D01*
X-256815Y-8807D01*
X-256720Y-8976D01*
X-256625Y-9166D01*
X-256520Y-9378D01*
X-256424Y-9600D01*
X-256340Y-9811D01*
X-257492D01*
X-257502Y-9800D01*
X-257513Y-9769D01*
X-257544Y-9716D01*
X-257576Y-9642D01*
X-257618Y-9557D01*
X-257682Y-9452D01*
X-257745Y-9335D01*
X-257809Y-9219D01*
X-257978Y-8945D01*
X-258178Y-8649D01*
X-258390Y-8342D01*
X-258633Y-8057D01*
X-258643Y-8046D01*
X-258664Y-8025D01*
X-258696Y-7983D01*
X-258749Y-7930D01*
X-258812Y-7877D01*
X-258876Y-7803D01*
X-259055Y-7645D01*
X-259246Y-7465D01*
X-259468Y-7286D01*
X-259700Y-7127D01*
X-259943Y-6990D01*
Y-6218D01*
X-250159D01*
Y-7412D01*
D02*
G37*
G36*
X-253170Y-11924D02*
X-253096D01*
X-253001Y-11935D01*
X-252885Y-11945D01*
X-252768Y-11966D01*
X-252504Y-12009D01*
X-252219Y-12083D01*
X-251923Y-12178D01*
X-251617Y-12315D01*
X-251606D01*
X-251585Y-12336D01*
X-251543Y-12357D01*
X-251490Y-12389D01*
X-251427Y-12431D01*
X-251353Y-12474D01*
X-251173Y-12600D01*
X-250983Y-12748D01*
X-250782Y-12939D01*
X-250581Y-13161D01*
X-250412Y-13404D01*
Y-13414D01*
X-250391Y-13435D01*
X-250370Y-13477D01*
X-250349Y-13530D01*
X-250317Y-13594D01*
X-250285Y-13668D01*
X-250243Y-13763D01*
X-250211Y-13858D01*
X-250127Y-14090D01*
X-250063Y-14365D01*
X-250021Y-14661D01*
X-250000Y-14978D01*
Y-15041D01*
X-250011Y-15126D01*
X-250021Y-15231D01*
X-250032Y-15358D01*
X-250063Y-15506D01*
X-250095Y-15665D01*
X-250137Y-15844D01*
X-250201Y-16034D01*
X-250264Y-16235D01*
X-250359Y-16436D01*
X-250465Y-16637D01*
X-250592Y-16848D01*
X-250740Y-17038D01*
X-250909Y-17239D01*
X-251099Y-17419D01*
X-251110Y-17429D01*
X-251152Y-17461D01*
X-251215Y-17503D01*
X-251310Y-17567D01*
X-251427Y-17641D01*
X-251574Y-17715D01*
X-251754Y-17799D01*
X-251965Y-17884D01*
X-252198Y-17979D01*
X-252462Y-18063D01*
X-252758Y-18137D01*
X-253085Y-18211D01*
X-253445Y-18275D01*
X-253836Y-18317D01*
X-254258Y-18349D01*
X-254713Y-18359D01*
X-254723D01*
X-254744D01*
X-254787D01*
X-254839D01*
X-254903D01*
X-254987Y-18349D01*
X-255072D01*
X-255177Y-18338D01*
X-255410Y-18327D01*
X-255674Y-18306D01*
X-255970Y-18275D01*
X-256287Y-18232D01*
X-256625Y-18169D01*
X-256963Y-18105D01*
X-257301Y-18021D01*
X-257640Y-17915D01*
X-257967Y-17799D01*
X-258284Y-17662D01*
X-258569Y-17493D01*
X-258823Y-17313D01*
X-258834Y-17303D01*
X-258876Y-17271D01*
X-258929Y-17218D01*
X-259003Y-17144D01*
X-259087Y-17060D01*
X-259182Y-16943D01*
X-259277Y-16816D01*
X-259383Y-16668D01*
X-259489Y-16499D01*
X-259584Y-16309D01*
X-259679Y-16108D01*
X-259763Y-15887D01*
X-259837Y-15654D01*
X-259890Y-15401D01*
X-259932Y-15136D01*
X-259943Y-14851D01*
Y-14735D01*
X-259932Y-14661D01*
X-259922Y-14566D01*
X-259911Y-14450D01*
X-259890Y-14323D01*
X-259858Y-14185D01*
X-259785Y-13879D01*
X-259732Y-13731D01*
X-259668Y-13562D01*
X-259594Y-13404D01*
X-259499Y-13255D01*
X-259404Y-13108D01*
X-259288Y-12960D01*
X-259277Y-12949D01*
X-259256Y-12928D01*
X-259224Y-12886D01*
X-259172Y-12844D01*
X-259108Y-12780D01*
X-259024Y-12717D01*
X-258929Y-12643D01*
X-258823Y-12569D01*
X-258707Y-12495D01*
X-258569Y-12421D01*
X-258421Y-12347D01*
X-258263Y-12273D01*
X-258094Y-12210D01*
X-257914Y-12157D01*
X-257724Y-12104D01*
X-257513Y-12072D01*
X-257418Y-13266D01*
X-257428D01*
X-257449Y-13277D01*
X-257481Y-13287D01*
X-257534Y-13298D01*
X-257661Y-13329D01*
X-257809Y-13382D01*
X-257978Y-13446D01*
X-258147Y-13530D01*
X-258305Y-13615D01*
X-258443Y-13721D01*
X-258453Y-13731D01*
X-258464Y-13742D01*
X-258495Y-13773D01*
X-258527Y-13805D01*
X-258612Y-13911D01*
X-258707Y-14059D01*
X-258802Y-14228D01*
X-258876Y-14439D01*
X-258939Y-14671D01*
X-258950Y-14798D01*
X-258960Y-14925D01*
Y-15020D01*
X-258939Y-15136D01*
X-258918Y-15274D01*
X-258876Y-15432D01*
X-258823Y-15601D01*
X-258738Y-15770D01*
X-258633Y-15939D01*
Y-15950D01*
X-258612Y-15961D01*
X-258591Y-15992D01*
X-258559Y-16034D01*
X-258464Y-16130D01*
X-258326Y-16256D01*
X-258157Y-16404D01*
X-257946Y-16552D01*
X-257703Y-16690D01*
X-257428Y-16827D01*
X-257418D01*
X-257397Y-16838D01*
X-257344Y-16859D01*
X-257280Y-16880D01*
X-257206Y-16901D01*
X-257101Y-16933D01*
X-256984Y-16964D01*
X-256858Y-16996D01*
X-256710Y-17028D01*
X-256541Y-17049D01*
X-256350Y-17081D01*
X-256150Y-17112D01*
X-255938Y-17133D01*
X-255706Y-17144D01*
X-255452Y-17155D01*
X-255199Y-17165D01*
X-255220Y-17144D01*
X-255252Y-17123D01*
X-255294Y-17091D01*
X-255410Y-16996D01*
X-255558Y-16880D01*
X-255716Y-16721D01*
X-255875Y-16542D01*
X-256023Y-16341D01*
X-256160Y-16119D01*
Y-16108D01*
X-256171Y-16087D01*
X-256192Y-16056D01*
X-256213Y-16013D01*
X-256234Y-15950D01*
X-256266Y-15887D01*
X-256329Y-15718D01*
X-256382Y-15517D01*
X-256435Y-15295D01*
X-256477Y-15052D01*
X-256488Y-14798D01*
Y-14745D01*
X-256477Y-14682D01*
Y-14598D01*
X-256456Y-14492D01*
X-256446Y-14376D01*
X-256414Y-14238D01*
X-256382Y-14090D01*
X-256329Y-13942D01*
X-256276Y-13773D01*
X-256203Y-13604D01*
X-256118Y-13435D01*
X-256012Y-13255D01*
X-255896Y-13087D01*
X-255759Y-12917D01*
X-255600Y-12759D01*
X-255590Y-12748D01*
X-255558Y-12727D01*
X-255516Y-12685D01*
X-255442Y-12622D01*
X-255357Y-12558D01*
X-255252Y-12495D01*
X-255125Y-12410D01*
X-254987Y-12336D01*
X-254829Y-12262D01*
X-254660Y-12178D01*
X-254470Y-12114D01*
X-254269Y-12040D01*
X-254058Y-11988D01*
X-253825Y-11945D01*
X-253582Y-11924D01*
X-253328Y-11914D01*
X-253318D01*
X-253286D01*
X-253244D01*
X-253170Y-11924D01*
D02*
G37*
G36*
X-254533Y-19532D02*
X-254375Y-19543D01*
X-254184Y-19553D01*
X-253983Y-19564D01*
X-253762Y-19585D01*
X-253540Y-19606D01*
X-253075Y-19669D01*
X-252621Y-19764D01*
X-252399Y-19817D01*
X-252198Y-19881D01*
X-252187D01*
X-252156Y-19902D01*
X-252092Y-19912D01*
X-252029Y-19944D01*
X-251934Y-19986D01*
X-251839Y-20029D01*
X-251722Y-20081D01*
X-251595Y-20145D01*
X-251331Y-20293D01*
X-251067Y-20472D01*
X-250803Y-20684D01*
X-250687Y-20810D01*
X-250571Y-20937D01*
X-250560Y-20948D01*
X-250550Y-20969D01*
X-250518Y-21011D01*
X-250486Y-21064D01*
X-250444Y-21128D01*
X-250391Y-21212D01*
X-250338Y-21307D01*
X-250285Y-21423D01*
X-250233Y-21540D01*
X-250180Y-21677D01*
X-250137Y-21814D01*
X-250084Y-21973D01*
X-250053Y-22142D01*
X-250021Y-22322D01*
X-250011Y-22501D01*
X-250000Y-22702D01*
Y-22765D01*
X-250011Y-22839D01*
X-250021Y-22934D01*
X-250032Y-23051D01*
X-250053Y-23188D01*
X-250084Y-23336D01*
X-250127Y-23505D01*
X-250180Y-23674D01*
X-250243Y-23854D01*
X-250328Y-24044D01*
X-250423Y-24223D01*
X-250539Y-24403D01*
X-250676Y-24583D01*
X-250824Y-24752D01*
X-251004Y-24910D01*
X-251014Y-24921D01*
X-251057Y-24953D01*
X-251131Y-24995D01*
X-251236Y-25058D01*
X-251374Y-25132D01*
X-251532Y-25217D01*
X-251733Y-25301D01*
X-251955Y-25386D01*
X-252219Y-25481D01*
X-252504Y-25565D01*
X-252832Y-25650D01*
X-253191Y-25724D01*
X-253582Y-25787D01*
X-254005Y-25830D01*
X-254470Y-25861D01*
X-254966Y-25872D01*
X-254987D01*
X-255040D01*
X-255135D01*
X-255252Y-25861D01*
X-255399D01*
X-255569Y-25851D01*
X-255759Y-25840D01*
X-255959Y-25830D01*
X-256181Y-25808D01*
X-256403Y-25787D01*
X-256868Y-25724D01*
X-257323Y-25639D01*
X-257544Y-25587D01*
X-257745Y-25523D01*
X-257756D01*
X-257787Y-25502D01*
X-257851Y-25481D01*
X-257925Y-25460D01*
X-258009Y-25417D01*
X-258115Y-25375D01*
X-258221Y-25322D01*
X-258347Y-25259D01*
X-258612Y-25111D01*
X-258876Y-24921D01*
X-259140Y-24709D01*
X-259256Y-24593D01*
X-259372Y-24467D01*
X-259383Y-24456D01*
X-259394Y-24435D01*
X-259425Y-24392D01*
X-259457Y-24340D01*
X-259510Y-24276D01*
X-259552Y-24192D01*
X-259605Y-24097D01*
X-259658Y-23980D01*
X-259711Y-23864D01*
X-259763Y-23727D01*
X-259816Y-23579D01*
X-259858Y-23431D01*
X-259890Y-23262D01*
X-259922Y-23082D01*
X-259932Y-22892D01*
X-259943Y-22702D01*
Y-22575D01*
X-259932Y-22501D01*
X-259922Y-22427D01*
X-259901Y-22237D01*
X-259869Y-22026D01*
X-259806Y-21793D01*
X-259732Y-21561D01*
X-259626Y-21328D01*
Y-21318D01*
X-259615Y-21297D01*
X-259594Y-21265D01*
X-259563Y-21223D01*
X-259499Y-21117D01*
X-259394Y-20980D01*
X-259267Y-20821D01*
X-259108Y-20663D01*
X-258918Y-20494D01*
X-258707Y-20346D01*
X-258696D01*
X-258675Y-20324D01*
X-258643Y-20314D01*
X-258601Y-20282D01*
X-258548Y-20250D01*
X-258474Y-20208D01*
X-258390Y-20176D01*
X-258305Y-20124D01*
X-258094Y-20029D01*
X-257851Y-19934D01*
X-257566Y-19828D01*
X-257259Y-19743D01*
X-257249D01*
X-257217Y-19733D01*
X-257175Y-19722D01*
X-257101Y-19712D01*
X-257016Y-19691D01*
X-256910Y-19669D01*
X-256794Y-19648D01*
X-256657Y-19627D01*
X-256498Y-19617D01*
X-256329Y-19595D01*
X-256139Y-19574D01*
X-255938Y-19553D01*
X-255716Y-19543D01*
X-255484Y-19532D01*
X-255230Y-19521D01*
X-254966D01*
X-254945D01*
X-254892D01*
X-254797D01*
X-254681D01*
X-254533Y-19532D01*
D02*
G37*
%LPC*%
G36*
X302874Y36520D02*
X297126D01*
X291448Y35621D01*
X285981Y33844D01*
X280859Y31235D01*
X276209Y27856D01*
X272144Y23791D01*
X268765Y19141D01*
X266156Y14019D01*
X264379Y8552D01*
X263480Y2874D01*
Y-2874D01*
X264379Y-8552D01*
X266156Y-14019D01*
X268765Y-19141D01*
X272144Y-23791D01*
X276209Y-27856D01*
X280859Y-31235D01*
X285981Y-33844D01*
X291448Y-35621D01*
X297126Y-36520D01*
X302874D01*
X308552Y-35621D01*
X314019Y-33844D01*
X319141Y-31235D01*
X323791Y-27856D01*
X327856Y-23791D01*
X331235Y-19141D01*
X333844Y-14019D01*
X335621Y-8552D01*
X336520Y-2874D01*
Y2874D01*
X335621Y8552D01*
X333844Y14019D01*
X331235Y19141D01*
X327856Y23791D01*
X323791Y27856D01*
X319141Y31235D01*
X314019Y33844D01*
X308552Y35621D01*
X302874Y36520D01*
D02*
G37*
G36*
X-297126D02*
X-302874D01*
X-308552Y35621D01*
X-314019Y33844D01*
X-319141Y31235D01*
X-323791Y27856D01*
X-327856Y23791D01*
X-331235Y19141D01*
X-333844Y14019D01*
X-335621Y8552D01*
X-336520Y2874D01*
Y-2874D01*
X-335621Y-8552D01*
X-333844Y-14019D01*
X-331235Y-19141D01*
X-327856Y-23791D01*
X-323791Y-27856D01*
X-319141Y-31235D01*
X-314019Y-33844D01*
X-308552Y-35621D01*
X-302874Y-36520D01*
X-297126D01*
X-291448Y-35621D01*
X-285981Y-33844D01*
X-280859Y-31235D01*
X-276209Y-27856D01*
X-272144Y-23791D01*
X-268765Y-19141D01*
X-266156Y-14019D01*
X-264379Y-8552D01*
X-263480Y-2874D01*
Y2874D01*
X-264379Y8552D01*
X-266156Y14019D01*
X-268765Y19141D01*
X-272144Y23791D01*
X-276209Y27856D01*
X-280859Y31235D01*
X-285981Y33844D01*
X-291448Y35621D01*
X-297126Y36520D01*
D02*
G37*
G36*
X-254966Y17133D02*
X-254977D01*
X-254998D01*
X-255030D01*
X-255072D01*
X-255125D01*
X-255188D01*
X-255357Y17123D01*
X-255547Y17112D01*
X-255769Y17102D01*
X-256012Y17091D01*
X-256266Y17060D01*
X-256805Y16996D01*
X-257069Y16943D01*
X-257323Y16890D01*
X-257566Y16827D01*
X-257798Y16753D01*
X-257988Y16668D01*
X-258157Y16563D01*
X-258168Y16552D01*
X-258189Y16542D01*
X-258231Y16510D01*
X-258284Y16468D01*
X-258337Y16404D01*
X-258411Y16341D01*
X-258485Y16267D01*
X-258559Y16182D01*
X-258696Y15982D01*
X-258823Y15739D01*
X-258876Y15612D01*
X-258918Y15464D01*
X-258939Y15327D01*
X-258950Y15168D01*
Y15094D01*
X-258939Y15031D01*
X-258929Y14967D01*
X-258918Y14883D01*
X-258865Y14693D01*
X-258781Y14481D01*
X-258728Y14376D01*
X-258654Y14259D01*
X-258580Y14154D01*
X-258485Y14048D01*
X-258379Y13942D01*
X-258252Y13847D01*
X-258242Y13837D01*
X-258210Y13826D01*
X-258157Y13794D01*
X-258073Y13752D01*
X-257967Y13710D01*
X-257840Y13657D01*
X-257692Y13594D01*
X-257502Y13541D01*
X-257291Y13488D01*
X-257058Y13425D01*
X-256784Y13372D01*
X-256488Y13329D01*
X-256160Y13287D01*
X-255790Y13266D01*
X-255399Y13245D01*
X-254966Y13234D01*
X-254956D01*
X-254935D01*
X-254903D01*
X-254861D01*
X-254808D01*
X-254734D01*
X-254575Y13245D01*
X-254385Y13255D01*
X-254163Y13266D01*
X-253920Y13277D01*
X-253666Y13308D01*
X-253128Y13372D01*
X-252864Y13414D01*
X-252599Y13467D01*
X-252356Y13530D01*
X-252134Y13615D01*
X-251934Y13699D01*
X-251765Y13794D01*
X-251754Y13805D01*
X-251733Y13816D01*
X-251691Y13847D01*
X-251638Y13900D01*
X-251585Y13953D01*
X-251522Y14016D01*
X-251374Y14175D01*
X-251226Y14376D01*
X-251110Y14619D01*
X-251057Y14745D01*
X-251014Y14883D01*
X-250993Y15031D01*
X-250983Y15179D01*
Y15210D01*
X-250993Y15263D01*
Y15316D01*
X-251004Y15390D01*
X-251025Y15474D01*
X-251078Y15665D01*
X-251120Y15770D01*
X-251173Y15876D01*
X-251236Y15992D01*
X-251321Y16108D01*
X-251405Y16225D01*
X-251511Y16341D01*
X-251638Y16457D01*
X-251775Y16563D01*
X-251786Y16573D01*
X-251817Y16584D01*
X-251860Y16616D01*
X-251934Y16647D01*
X-252029Y16700D01*
X-252156Y16743D01*
X-252304Y16795D01*
X-252472Y16848D01*
X-252673Y16901D01*
X-252906Y16954D01*
X-253159Y17007D01*
X-253455Y17049D01*
X-253783Y17081D01*
X-254142Y17112D01*
X-254533Y17123D01*
X-254966Y17133D01*
D02*
G37*
G36*
X-253593Y8268D02*
X-257988D01*
X-253593Y5193D01*
Y8268D01*
D02*
G37*
G36*
X-253255Y-13139D02*
X-253265D01*
X-253297D01*
X-253350D01*
X-253424Y-13150D01*
X-253508Y-13161D01*
X-253603Y-13171D01*
X-253709Y-13182D01*
X-253825Y-13203D01*
X-254079Y-13266D01*
X-254343Y-13361D01*
X-254480Y-13425D01*
X-254607Y-13499D01*
X-254723Y-13583D01*
X-254839Y-13678D01*
X-254850Y-13689D01*
X-254861Y-13699D01*
X-254892Y-13731D01*
X-254935Y-13773D01*
X-254977Y-13826D01*
X-255030Y-13889D01*
X-255135Y-14048D01*
X-255241Y-14249D01*
X-255336Y-14481D01*
X-255410Y-14745D01*
X-255421Y-14893D01*
X-255431Y-15041D01*
Y-15115D01*
X-255421Y-15179D01*
X-255410Y-15242D01*
X-255399Y-15327D01*
X-255357Y-15517D01*
X-255283Y-15739D01*
X-255177Y-15971D01*
X-255114Y-16087D01*
X-255040Y-16204D01*
X-254945Y-16320D01*
X-254839Y-16425D01*
X-254829Y-16436D01*
X-254808Y-16447D01*
X-254776Y-16478D01*
X-254734Y-16510D01*
X-254681Y-16552D01*
X-254607Y-16605D01*
X-254522Y-16658D01*
X-254427Y-16700D01*
X-254332Y-16753D01*
X-254216Y-16806D01*
X-253952Y-16901D01*
X-253656Y-16964D01*
X-253487Y-16975D01*
X-253318Y-16985D01*
X-253307D01*
X-253286D01*
X-253255D01*
X-253212D01*
X-253159Y-16975D01*
X-253096D01*
X-252938Y-16954D01*
X-252758Y-16922D01*
X-252557Y-16880D01*
X-252346Y-16816D01*
X-252134Y-16732D01*
X-252124D01*
X-252113Y-16721D01*
X-252082Y-16700D01*
X-252039Y-16679D01*
X-251944Y-16626D01*
X-251817Y-16542D01*
X-251680Y-16436D01*
X-251543Y-16309D01*
X-251405Y-16172D01*
X-251278Y-16003D01*
Y-15992D01*
X-251268Y-15982D01*
X-251236Y-15918D01*
X-251183Y-15823D01*
X-251131Y-15696D01*
X-251078Y-15548D01*
X-251025Y-15379D01*
X-250993Y-15189D01*
X-250983Y-14999D01*
Y-14925D01*
X-250993Y-14872D01*
X-251004Y-14798D01*
X-251014Y-14724D01*
X-251057Y-14545D01*
X-251131Y-14344D01*
X-251183Y-14228D01*
X-251236Y-14122D01*
X-251310Y-14006D01*
X-251384Y-13900D01*
X-251479Y-13794D01*
X-251585Y-13689D01*
X-251595Y-13678D01*
X-251617Y-13668D01*
X-251648Y-13636D01*
X-251701Y-13604D01*
X-251765Y-13562D01*
X-251839Y-13520D01*
X-251923Y-13467D01*
X-252029Y-13414D01*
X-252134Y-13361D01*
X-252261Y-13308D01*
X-252399Y-13266D01*
X-252547Y-13224D01*
X-252705Y-13192D01*
X-252885Y-13161D01*
X-253064Y-13150D01*
X-253255Y-13139D01*
D02*
G37*
G36*
X-255199Y-17165D02*
X-255199Y-17165D01*
X-255188D01*
X-255199Y-17165D01*
D02*
G37*
G36*
X-254966Y-20747D02*
X-254977D01*
X-254998D01*
X-255030D01*
X-255072D01*
X-255125D01*
X-255188D01*
X-255357Y-20758D01*
X-255547Y-20768D01*
X-255769Y-20779D01*
X-256012Y-20789D01*
X-256266Y-20821D01*
X-256805Y-20884D01*
X-257069Y-20937D01*
X-257323Y-20990D01*
X-257566Y-21054D01*
X-257798Y-21128D01*
X-257988Y-21212D01*
X-258157Y-21318D01*
X-258168Y-21328D01*
X-258189Y-21339D01*
X-258231Y-21370D01*
X-258284Y-21413D01*
X-258337Y-21476D01*
X-258411Y-21540D01*
X-258485Y-21614D01*
X-258559Y-21698D01*
X-258696Y-21899D01*
X-258823Y-22142D01*
X-258876Y-22269D01*
X-258918Y-22417D01*
X-258939Y-22554D01*
X-258950Y-22713D01*
Y-22786D01*
X-258939Y-22850D01*
X-258929Y-22913D01*
X-258918Y-22998D01*
X-258865Y-23188D01*
X-258781Y-23399D01*
X-258728Y-23505D01*
X-258654Y-23621D01*
X-258580Y-23727D01*
X-258485Y-23832D01*
X-258379Y-23938D01*
X-258252Y-24033D01*
X-258242Y-24044D01*
X-258210Y-24054D01*
X-258157Y-24086D01*
X-258073Y-24128D01*
X-257967Y-24171D01*
X-257840Y-24223D01*
X-257692Y-24287D01*
X-257502Y-24340D01*
X-257291Y-24392D01*
X-257058Y-24456D01*
X-256784Y-24509D01*
X-256488Y-24551D01*
X-256160Y-24593D01*
X-255790Y-24614D01*
X-255399Y-24636D01*
X-254966Y-24646D01*
X-254956D01*
X-254935D01*
X-254903D01*
X-254861D01*
X-254808D01*
X-254734D01*
X-254575Y-24636D01*
X-254385Y-24625D01*
X-254163Y-24614D01*
X-253920Y-24604D01*
X-253666Y-24572D01*
X-253128Y-24509D01*
X-252864Y-24467D01*
X-252599Y-24414D01*
X-252356Y-24350D01*
X-252134Y-24266D01*
X-251934Y-24181D01*
X-251765Y-24086D01*
X-251754Y-24076D01*
X-251733Y-24065D01*
X-251691Y-24033D01*
X-251638Y-23980D01*
X-251585Y-23928D01*
X-251522Y-23864D01*
X-251374Y-23706D01*
X-251226Y-23505D01*
X-251110Y-23262D01*
X-251057Y-23135D01*
X-251014Y-22998D01*
X-250993Y-22850D01*
X-250983Y-22702D01*
Y-22670D01*
X-250993Y-22617D01*
Y-22564D01*
X-251004Y-22491D01*
X-251025Y-22406D01*
X-251078Y-22216D01*
X-251120Y-22110D01*
X-251173Y-22004D01*
X-251236Y-21888D01*
X-251321Y-21772D01*
X-251405Y-21656D01*
X-251511Y-21540D01*
X-251638Y-21423D01*
X-251775Y-21318D01*
X-251786Y-21307D01*
X-251817Y-21297D01*
X-251860Y-21265D01*
X-251934Y-21233D01*
X-252029Y-21180D01*
X-252156Y-21138D01*
X-252304Y-21085D01*
X-252472Y-21032D01*
X-252673Y-20980D01*
X-252906Y-20927D01*
X-253159Y-20874D01*
X-253455Y-20832D01*
X-253783Y-20800D01*
X-254142Y-20768D01*
X-254533Y-20758D01*
X-254966Y-20747D01*
D02*
G37*
%LPD*%
D13*
X300000Y0D02*
D03*
X-300000D02*
D03*
M02*
