G04*
G04 #@! TF.GenerationSoftware,Altium Limited,Altium Designer,24.2.2 (26)*
G04*
G04 Layer_Color=16711935*
%FSLAX44Y44*%
%MOMM*%
G71*
G04*
G04 #@! TF.SameCoordinates,095C8166-07C7-4A6C-A572-23EF2CAD76B2*
G04*
G04*
G04 #@! TF.FilePolarity,Positive*
G04*
G01*
G75*
%ADD13C,0.1000*%
D13*
X342053Y40000D02*
G03*
X347010Y45652I0J5000D01*
G01*
X347010D02*
G03*
X-347010Y45652I-347010J-45652D01*
G01*
X-347010D02*
G03*
X-342053Y40000I4957J-652D01*
G01*
X-297707Y35000D02*
G03*
X-302707Y40000I-5000J0D01*
G01*
Y-40000D02*
G03*
X-297707Y-35000I0J5000D01*
G01*
X347010Y-45652D02*
G03*
X342053Y-40000I-4957J652D01*
G01*
X297707Y-35000D02*
G03*
X302707Y-40000I5000J0D01*
G01*
Y40000D02*
G03*
X297707Y35000I0J-5000D01*
G01*
X-347010Y-45652D02*
G03*
X347010Y-45652I347010J45652D01*
G01*
X481269Y60043D02*
G03*
X483287Y-40733I-481269J-60043D01*
G01*
X478284Y51604D02*
G03*
X481269Y60043I-6938J7201D01*
G01*
X-342053Y-40000D02*
G03*
X-347010Y-45652I0J-5000D01*
G01*
X469906Y-9400D02*
G03*
X479966Y-32420I29994J-600D01*
G01*
X478284Y51604D02*
G03*
X469153Y28200I20815J-21604D01*
G01*
X469906Y-9400D02*
G03*
X469153Y28200I-469906J9400D01*
G01*
X483287Y-40733D02*
G03*
X479966Y-32420I-9965J840D01*
G01*
X-342053Y-40000D02*
X-302707D01*
X302707D02*
X342053D01*
X297707Y-35000D02*
Y35000D01*
X-297707Y-35000D02*
Y35000D01*
X-342053Y40000D02*
X-302707D01*
X302707D02*
X342053D01*
M02*
